<?xml version="1.0" encoding="UTF-8" standalone="no"?>
<!DOCTYPE svg PUBLIC "-//W3C//DTD SVG 1.1//EN" "http://www.w3.org/Graphics/SVG/1.1/DTD/svg11.dtd">
<svg width="100%" height="100%" viewBox="0 0 186 136" version="1.1" xmlns="http://www.w3.org/2000/svg" xmlns:xlink="http://www.w3.org/1999/xlink" xml:space="preserve" xmlns:serif="http://www.serif.com/" style="fill-rule:evenodd;clip-rule:evenodd;stroke-linejoin:round;stroke-miterlimit:2;">
    <g transform="matrix(1,0,0,1,-465.042,-1244.96)">
        <g transform="matrix(4.16667,0,0,4.16667,0,0)">
            <g transform="matrix(-1,0,0,-1,267.794,630)">
                <path d="M121.715,298.791C124.583,298.791 127.035,299.909 129.069,302.143C130.035,303.178 130.802,304.436 131.371,305.92C131.938,307.404 132.221,308.897 132.221,310.397C132.221,313.566 131.187,316.775 129.119,320.027C127.051,323.279 124.283,326.039 120.815,328.307C117.88,330.241 115.579,331.209 113.911,331.209C113.244,331.209 112.693,331.009 112.26,330.608C111.827,330.208 111.61,329.674 111.61,329.008C111.61,328.007 112.243,327.173 113.511,326.506C116.545,324.938 118.764,323.387 120.165,321.853C121.498,320.42 122.165,319.369 122.165,318.702C122.165,318.068 121.665,317.684 120.665,317.551L120.015,317.451L119.264,317.401C117.096,317.067 115.337,316.059 113.986,314.375C112.636,312.691 111.96,310.647 111.96,308.246C111.96,305.779 112.793,303.645 114.461,301.843C116.363,299.809 118.78,298.791 121.715,298.791Z" style="fill:rgb(0,46,91);fill-rule:nonzero;"/>
            </g>
        </g>
        <g transform="matrix(4.16667,0,0,4.16667,0,0)">
            <g transform="matrix(-1,0,0,-1,267.794,630)">
                <path d="M145.678,298.791C148.546,298.791 150.998,299.909 153.032,302.143C153.998,303.178 154.766,304.436 155.333,305.92C155.901,307.404 156.184,308.897 156.184,310.397C156.184,313.566 155.15,316.775 153.082,320.027C151.014,323.279 148.247,326.039 144.778,328.307C141.842,330.241 139.542,331.209 137.873,331.209C137.206,331.209 136.657,331.009 136.223,330.608C135.79,330.208 135.573,329.674 135.573,329.008C135.573,328.007 136.206,327.173 137.474,326.506C140.508,324.938 142.727,323.387 144.127,321.853C145.461,320.42 146.128,319.369 146.128,318.702C146.128,318.068 145.628,317.684 144.627,317.551L143.977,317.451L143.227,317.401C141.059,317.067 139.299,316.059 137.95,314.375C136.598,312.691 135.923,310.647 135.923,308.246C135.923,305.779 136.756,303.645 138.424,301.843C140.326,299.809 142.743,298.791 145.678,298.791Z" style="fill:rgb(0,46,91);fill-rule:nonzero;"/>
            </g>
        </g>
    </g>
</svg>
