<?xml version="1.0" encoding="UTF-8" standalone="no"?>
<!DOCTYPE svg PUBLIC "-//W3C//DTD SVG 1.1//EN" "http://www.w3.org/Graphics/SVG/1.1/DTD/svg11.dtd">
<svg width="100%" height="100%" viewBox="0 0 186 136" version="1.1" xmlns="http://www.w3.org/2000/svg" xmlns:xlink="http://www.w3.org/1999/xlink" xml:space="preserve" xmlns:serif="http://www.serif.com/" style="fill-rule:evenodd;clip-rule:evenodd;stroke-linejoin:round;stroke-miterlimit:2;">
    <g transform="matrix(1,0,0,1,-1266.61,-1636.63)">
        <g transform="matrix(4.16667,0,0,4.16667,0,0)">
            <g transform="matrix(-1,0,0,-1,652.548,818)">
                <path d="M338.456,425.209C335.587,425.209 333.136,424.091 331.102,421.857C330.135,420.822 329.368,419.564 328.8,418.08C328.233,416.596 327.95,415.103 327.95,413.603C327.95,410.434 328.983,407.225 331.052,403.973C333.12,400.721 335.888,397.961 339.356,395.693C342.291,393.759 344.593,392.791 346.26,392.791C346.927,392.791 347.477,392.991 347.911,393.392C348.345,393.792 348.561,394.326 348.561,394.992C348.561,395.993 347.928,396.827 346.659,397.494C343.626,399.063 341.407,400.613 340.007,402.147C338.673,403.58 338.005,404.631 338.005,405.298C338.005,405.932 338.505,406.316 339.506,406.449L340.156,406.549L340.907,406.599C343.075,406.933 344.834,407.941 346.185,409.625C347.535,411.309 348.21,413.353 348.21,415.754C348.21,418.221 347.378,420.355 345.71,422.157C343.808,424.191 341.391,425.209 338.456,425.209Z" style="fill:rgb(25,47,89);fill-rule:nonzero;"/>
            </g>
        </g>
        <g transform="matrix(4.16667,0,0,4.16667,0,0)">
            <g transform="matrix(-1,0,0,-1,652.548,818)">
                <path d="M314.493,425.209C311.624,425.209 309.173,424.091 307.14,421.857C306.173,420.822 305.405,419.564 304.837,418.08C304.27,416.596 303.987,415.103 303.987,413.603C303.987,410.434 305.02,407.225 307.089,403.973C309.157,400.721 311.925,397.961 315.394,395.693C318.329,393.759 320.63,392.791 322.298,392.791C322.964,392.791 323.515,392.991 323.948,393.392C324.382,393.792 324.599,394.326 324.599,394.992C324.599,395.993 323.966,396.827 322.696,397.494C319.663,399.063 317.444,400.613 316.044,402.147C314.71,403.58 314.042,404.631 314.042,405.298C314.042,405.932 314.542,406.316 315.544,406.449L316.194,406.549L316.944,406.599C319.112,406.933 320.872,407.941 322.222,409.625C323.573,411.309 324.247,413.353 324.247,415.754C324.247,418.221 323.415,420.355 321.747,422.157C319.845,424.191 317.429,425.209 314.493,425.209Z" style="fill:rgb(25,47,89);fill-rule:nonzero;"/>
            </g>
        </g>
    </g>
</svg>
